<mxfile host="app.diagrams.net" modified="2024-02-17T17:11:14.833Z" agent="Mozilla/5.0 (Windows NT 10.0; Win64; x64) AppleWebKit/537.36 (KHTML, like Gecko) Chrome/121.0.0.0 Safari/537.36" etag="FHckoMDvx9bCqQWbR96Z" version="23.1.4" type="device">
  <diagram name="Page-1" id="58cdce13-f638-feb5-8d6f-7d28b1aa9fa0">
    <mxGraphModel dx="2423" dy="763" grid="1" gridSize="10" guides="1" tooltips="1" connect="1" arrows="1" fold="1" page="1" pageScale="1" pageWidth="1100" pageHeight="850" background="none" math="0" shadow="0">
      <root>
        <mxCell id="0" />
        <mxCell id="1" parent="0" />
        <mxCell id="g7KXOn-0d83DryINYnWa-1" style="edgeStyle=orthogonalEdgeStyle;rounded=0;orthogonalLoop=1;jettySize=auto;html=1;exitX=1;exitY=0.5;exitDx=0;exitDy=0;" edge="1" parent="1">
          <mxGeometry relative="1" as="geometry">
            <mxPoint x="609" y="124" as="targetPoint" />
            <mxPoint x="370" y="123.99999999999989" as="sourcePoint" />
          </mxGeometry>
        </mxCell>
        <mxCell id="g7KXOn-0d83DryINYnWa-2" value="destination != floor" style="edgeLabel;html=1;align=center;verticalAlign=middle;resizable=0;points=[];fontSize=16;" vertex="1" connectable="0" parent="g7KXOn-0d83DryINYnWa-1">
          <mxGeometry x="-0.0344" y="-3" relative="1" as="geometry">
            <mxPoint x="4" y="-18" as="offset" />
          </mxGeometry>
        </mxCell>
        <mxCell id="g7KXOn-0d83DryINYnWa-6" value="State: Moving" style="swimlane;fontStyle=1;align=center;verticalAlign=middle;childLayout=stackLayout;horizontal=1;startSize=30;horizontalStack=0;resizeParent=0;resizeLast=1;container=0;fontColor=#000000;collapsible=0;rounded=1;arcSize=30;strokeColor=#ff0000;fillColor=#ffffc0;swimlaneFillColor=#ffffc0;dropTarget=0;" vertex="1" parent="1">
          <mxGeometry x="609" y="94" width="431" height="146" as="geometry" />
        </mxCell>
        <mxCell id="g7KXOn-0d83DryINYnWa-7" value="&lt;font style=&quot;font-size: 14px;&quot;&gt;entry/&lt;br&gt;elevatorIncoming.PutMessage(this.floorOutgoing.getMessage())&lt;br&gt;sleep(50 * Math.abs(destination - floor))&lt;br&gt;&lt;/font&gt;" style="text;html=1;strokeColor=none;fillColor=none;align=center;verticalAlign=middle;spacingLeft=4;spacingRight=4;whiteSpace=wrap;overflow=hidden;rotatable=0;fontColor=#000000;" vertex="1" parent="g7KXOn-0d83DryINYnWa-6">
          <mxGeometry y="30" width="431" height="116" as="geometry" />
        </mxCell>
        <mxCell id="g7KXOn-0d83DryINYnWa-8" value="Loop" style="shape=umlFrame;whiteSpace=wrap;html=1;pointerEvents=0;" vertex="1" parent="1">
          <mxGeometry x="50" width="1010" height="620" as="geometry" />
        </mxCell>
        <mxCell id="g7KXOn-0d83DryINYnWa-9" style="edgeStyle=orthogonalEdgeStyle;rounded=0;orthogonalLoop=1;jettySize=auto;html=1;" edge="1" parent="1" source="g7KXOn-0d83DryINYnWa-10" target="g7KXOn-0d83DryINYnWa-8">
          <mxGeometry relative="1" as="geometry" />
        </mxCell>
        <mxCell id="g7KXOn-0d83DryINYnWa-10" value="" style="ellipse;html=1;shape=startState;fillColor=#000000;strokeColor=#ff0000;" vertex="1" parent="1">
          <mxGeometry x="-8" y="296" width="30" height="30" as="geometry" />
        </mxCell>
        <mxCell id="g7KXOn-0d83DryINYnWa-11" style="edgeStyle=orthogonalEdgeStyle;rounded=0;orthogonalLoop=1;jettySize=auto;html=1;entryX=0;entryY=0.5;entryDx=0;entryDy=0;" edge="1" parent="1" source="g7KXOn-0d83DryINYnWa-12">
          <mxGeometry relative="1" as="geometry">
            <mxPoint x="210" y="123.99999999999989" as="targetPoint" />
          </mxGeometry>
        </mxCell>
        <mxCell id="g7KXOn-0d83DryINYnWa-12" value="" style="ellipse;html=1;shape=startState;fillColor=#000000;strokeColor=#ff0000;" vertex="1" parent="1">
          <mxGeometry x="100" y="109" width="30" height="30" as="geometry" />
        </mxCell>
        <mxCell id="g7KXOn-0d83DryINYnWa-18" value="" style="ellipse;html=1;shape=endState;fillColor=#000000;strokeColor=#ff0000;" vertex="1" parent="1">
          <mxGeometry x="850" y="638" width="30" height="30" as="geometry" />
        </mxCell>
        <mxCell id="g7KXOn-0d83DryINYnWa-19" style="edgeStyle=orthogonalEdgeStyle;rounded=0;orthogonalLoop=1;jettySize=auto;html=1;entryX=0.803;entryY=1.015;entryDx=0;entryDy=0;entryPerimeter=0;" edge="1" parent="1">
          <mxGeometry relative="1" as="geometry">
            <mxPoint x="865" y="639" as="sourcePoint" />
            <mxPoint x="864.97" y="619" as="targetPoint" />
          </mxGeometry>
        </mxCell>
        <mxCell id="g7KXOn-0d83DryINYnWa-28" style="edgeStyle=orthogonalEdgeStyle;rounded=0;orthogonalLoop=1;jettySize=auto;html=1;entryX=0;entryY=0.5;entryDx=0;entryDy=0;" edge="1" parent="1" source="g7KXOn-0d83DryINYnWa-24" target="g7KXOn-0d83DryINYnWa-26">
          <mxGeometry relative="1" as="geometry">
            <Array as="points">
              <mxPoint x="290" y="35" />
            </Array>
          </mxGeometry>
        </mxCell>
        <mxCell id="g7KXOn-0d83DryINYnWa-30" value="&lt;font style=&quot;font-size: 16px;&quot;&gt;incoming.getMessage()==null&lt;/font&gt;" style="edgeLabel;html=1;align=center;verticalAlign=middle;resizable=0;points=[];" vertex="1" connectable="0" parent="g7KXOn-0d83DryINYnWa-28">
          <mxGeometry x="0.0562" y="-3" relative="1" as="geometry">
            <mxPoint x="1" as="offset" />
          </mxGeometry>
        </mxCell>
        <mxCell id="g7KXOn-0d83DryINYnWa-24" value="State: Idle" style="swimlane;fontStyle=1;align=center;verticalAlign=middle;childLayout=stackLayout;horizontal=1;startSize=30;horizontalStack=0;resizeParent=0;resizeLast=1;container=0;fontColor=#000000;collapsible=0;rounded=1;arcSize=30;strokeColor=#ff0000;fillColor=#ffffc0;swimlaneFillColor=#ffffc0;dropTarget=0;" vertex="1" parent="1">
          <mxGeometry x="210" y="60" width="160.5" height="110" as="geometry" />
        </mxCell>
        <mxCell id="g7KXOn-0d83DryINYnWa-25" value="&lt;font style=&quot;font-size: 14px;&quot;&gt;do/&lt;br&gt;incoming.getMessage()&lt;br&gt;&lt;/font&gt;" style="text;html=1;strokeColor=none;fillColor=none;align=center;verticalAlign=middle;spacingLeft=4;spacingRight=4;whiteSpace=wrap;overflow=hidden;rotatable=0;fontColor=#000000;" vertex="1" parent="g7KXOn-0d83DryINYnWa-24">
          <mxGeometry y="30" width="160.5" height="80" as="geometry" />
        </mxCell>
        <mxCell id="g7KXOn-0d83DryINYnWa-26" value="" style="ellipse;html=1;shape=endState;fillColor=#000000;strokeColor=#ff0000;" vertex="1" parent="1">
          <mxGeometry x="541" y="20" width="30" height="30" as="geometry" />
        </mxCell>
        <mxCell id="g7KXOn-0d83DryINYnWa-32" value="State: DoorsOpen" style="swimlane;fontStyle=1;align=center;verticalAlign=middle;childLayout=stackLayout;horizontal=1;startSize=30;horizontalStack=0;resizeParent=0;resizeLast=1;container=0;fontColor=#000000;collapsible=0;rounded=1;arcSize=30;strokeColor=#ff0000;fillColor=#ffffc0;swimlaneFillColor=#ffffc0;dropTarget=0;" vertex="1" parent="1">
          <mxGeometry x="649" y="335" width="351" height="75" as="geometry" />
        </mxCell>
        <mxCell id="g7KXOn-0d83DryINYnWa-33" value="&lt;font style=&quot;font-size: 14px;&quot;&gt;entry/&lt;br&gt;sleep(1)&lt;br&gt;&lt;/font&gt;" style="text;html=1;strokeColor=none;fillColor=none;align=center;verticalAlign=middle;spacingLeft=4;spacingRight=4;whiteSpace=wrap;overflow=hidden;rotatable=0;fontColor=#000000;" vertex="1" parent="g7KXOn-0d83DryINYnWa-32">
          <mxGeometry y="30" width="351" height="45" as="geometry" />
        </mxCell>
        <mxCell id="g7KXOn-0d83DryINYnWa-34" style="edgeStyle=orthogonalEdgeStyle;rounded=0;orthogonalLoop=1;jettySize=auto;html=1;entryX=0.5;entryY=0;entryDx=0;entryDy=0;" edge="1" parent="1" source="g7KXOn-0d83DryINYnWa-7" target="g7KXOn-0d83DryINYnWa-32">
          <mxGeometry relative="1" as="geometry" />
        </mxCell>
        <mxCell id="g7KXOn-0d83DryINYnWa-36" value="destination == floor" style="edgeLabel;html=1;align=center;verticalAlign=middle;resizable=0;points=[];fontSize=16;" vertex="1" connectable="0" parent="1">
          <mxGeometry x="510.0000000000002" y="108.99999999999989" as="geometry">
            <mxPoint x="298" y="175" as="offset" />
          </mxGeometry>
        </mxCell>
        <mxCell id="g7KXOn-0d83DryINYnWa-37" value="State: DoorsClosed" style="swimlane;fontStyle=1;align=center;verticalAlign=middle;childLayout=stackLayout;horizontal=1;startSize=30;horizontalStack=0;resizeParent=0;resizeLast=1;container=0;fontColor=#000000;collapsible=0;rounded=1;arcSize=30;strokeColor=#ff0000;fillColor=#ffffc0;swimlaneFillColor=#ffffc0;dropTarget=0;" vertex="1" parent="1">
          <mxGeometry x="649" y="480" width="351" height="75" as="geometry" />
        </mxCell>
        <mxCell id="g7KXOn-0d83DryINYnWa-38" value="&lt;font style=&quot;font-size: 14px;&quot;&gt;entry/&lt;br&gt;sleep(1)&lt;br&gt;&lt;/font&gt;" style="text;html=1;strokeColor=none;fillColor=none;align=center;verticalAlign=middle;spacingLeft=4;spacingRight=4;whiteSpace=wrap;overflow=hidden;rotatable=0;fontColor=#000000;" vertex="1" parent="g7KXOn-0d83DryINYnWa-37">
          <mxGeometry y="30" width="351" height="45" as="geometry" />
        </mxCell>
        <mxCell id="g7KXOn-0d83DryINYnWa-39" style="edgeStyle=orthogonalEdgeStyle;rounded=0;orthogonalLoop=1;jettySize=auto;html=1;entryX=0.5;entryY=0;entryDx=0;entryDy=0;" edge="1" parent="1" source="g7KXOn-0d83DryINYnWa-33" target="g7KXOn-0d83DryINYnWa-37">
          <mxGeometry relative="1" as="geometry" />
        </mxCell>
        <mxCell id="g7KXOn-0d83DryINYnWa-40" style="edgeStyle=orthogonalEdgeStyle;rounded=0;orthogonalLoop=1;jettySize=auto;html=1;" edge="1" parent="1" source="g7KXOn-0d83DryINYnWa-38" target="g7KXOn-0d83DryINYnWa-25">
          <mxGeometry relative="1" as="geometry" />
        </mxCell>
      </root>
    </mxGraphModel>
  </diagram>
</mxfile>
